<?xml version="1.0" encoding="UTF-8"?>
<svg id="Capa_6" data-name="Capa 6" xmlns="http://www.w3.org/2000/svg" xmlns:xlink="http://www.w3.org/1999/xlink" viewBox="0 0 1470.67 1546">
  <defs>
    <linearGradient id="Degradado_sin_nombre_56" data-name="Degradado sin nombre 56" x1="839.15" y1="932.82" x2="722.21" y2="566.86" gradientUnits="userSpaceOnUse">
      <stop offset="0" stop-color="#2292f4"/>
      <stop offset=".17" stop-color="#248cf0"/>
      <stop offset=".39" stop-color="#2d7be6"/>
      <stop offset=".64" stop-color="#3b60d5"/>
      <stop offset=".91" stop-color="#4e3bbe"/>
      <stop offset="1" stop-color="#562cb5"/>
    </linearGradient>
    <linearGradient id="Degradado_sin_nombre_49" data-name="Degradado sin nombre 49" x1="387.64" y1="528.84" x2="1024.52" y2="528.84" gradientUnits="userSpaceOnUse">
      <stop offset="0" stop-color="#2292f4"/>
      <stop offset="1" stop-color="#562cb5"/>
    </linearGradient>
    <linearGradient id="Degradado_sin_nombre_79" data-name="Degradado sin nombre 79" x1="684.01" y1="867.88" x2="540.93" y2="1071.5" gradientUnits="userSpaceOnUse">
      <stop offset="0" stop-color="#2292f4"/>
      <stop offset=".18" stop-color="#248df0"/>
      <stop offset=".39" stop-color="#2b7ee8"/>
      <stop offset=".61" stop-color="#3767d9"/>
      <stop offset=".84" stop-color="#4846c5"/>
      <stop offset="1" stop-color="#562cb5"/>
    </linearGradient>
    <linearGradient id="Degradado_sin_nombre_84" data-name="Degradado sin nombre 84" x1="387.8" y1="1012.16" x2="1024.52" y2="1012.16" gradientUnits="userSpaceOnUse">
      <stop offset="0" stop-color="#2292f4"/>
      <stop offset=".26" stop-color="#346edd"/>
      <stop offset=".58" stop-color="#464ac7"/>
      <stop offset=".84" stop-color="#5134ba"/>
      <stop offset="1" stop-color="#562cb5"/>
    </linearGradient>
    <linearGradient id="Degradado_sin_nombre_67" data-name="Degradado sin nombre 67" x1="460.52" y1="801.16" x2="782.21" y2="801.16" gradientUnits="userSpaceOnUse">
      <stop offset="0" stop-color="#2292f4"/>
      <stop offset=".36" stop-color="#3370df"/>
      <stop offset="1" stop-color="#562cb5"/>
    </linearGradient>
    <linearGradient id="Degradado_sin_nombre_62" data-name="Degradado sin nombre 62" x1="999.63" y1="986.69" x2="778.12" y2="854.61" gradientUnits="userSpaceOnUse">
      <stop offset="0" stop-color="#2292f4"/>
      <stop offset=".24" stop-color="#238ef2"/>
      <stop offset=".43" stop-color="#2885ec"/>
      <stop offset=".61" stop-color="#3074e1"/>
      <stop offset=".77" stop-color="#3c5dd3"/>
      <stop offset=".92" stop-color="#4c3fc1"/>
      <stop offset="1" stop-color="#562cb5"/>
    </linearGradient>
    <linearGradient id="Degradado_sin_nombre_74" data-name="Degradado sin nombre 74" x1="957.67" y1="872.06" x2="918.61" y2="979.36" gradientUnits="userSpaceOnUse">
      <stop offset="0" stop-color="#2292f4"/>
      <stop offset=".22" stop-color="#3074e1"/>
      <stop offset=".56" stop-color="#454dc9"/>
      <stop offset=".83" stop-color="#5134ba"/>
      <stop offset="1" stop-color="#562cb5"/>
    </linearGradient>
    <linearGradient id="Degradado_sin_nombre_42" data-name="Degradado sin nombre 42" x1="956.14" y1="668.79" x2="916.38" y2="559.55" gradientUnits="userSpaceOnUse">
      <stop offset="0" stop-color="#2292f4"/>
      <stop offset=".22" stop-color="#3074e1"/>
      <stop offset=".56" stop-color="#454dc9"/>
      <stop offset=".83" stop-color="#5134ba"/>
      <stop offset="1" stop-color="#562cb5"/>
    </linearGradient>
  </defs>
  <path d="m949.9,572.64c4.96,17.6,7.62,36.17,7.62,55.36,0,29.76-6.39,58.02-17.87,83.5-6.78,15.06-15.35,29.15-25.42,42-1.93,2.46-3.92,4.87-5.96,7.24-1.25,1.46-2.52,2.89-3.81,4.31-.14.16-.29.32-.44.47-1.54,1.69-3.12,3.35-4.72,4.98-1.11,1.13-2.23,2.24-3.36,3.36-32.12,31.24-74.52,51.98-121.65,56.64-1.69.17-3.56.07-5.39,0h-188.38v-47.11c0-39.7,32.19-71.89,71.89-71.89h102.11c5.23,0,10.35-.48,15.32-1.4,4.25-.78,8.38-1.88,12.37-3.28,32.79-11.44,56.31-42.63,56.31-79.32,0-34.51-20.81-64.16-50.57-77.08-10.24-4.45-21.55-6.92-33.43-6.92h89.24c37.34,0,72.58,9.02,103.65,25,.51.25,1.01.52,1.51.78.34,1.11.66,2.23.98,3.36Z" fill="url(#Degradado_sin_nombre_56)"/>
  <path d="m1024.52,599v34.18c-.88-1.17-1.78-2.32-2.69-3.47-17.61-22.26-39.31-41.13-63.97-55.49-.11-.07-.22-.13-.34-.19-2.83-1.65-5.69-3.23-8.6-4.75-.5-.26-1-.53-1.51-.78-31.07-15.98-66.31-25-103.65-25h-456.12c21.78-65.09,80.72-113.15,151.64-119h325.32c70.2,6.49,128.39,54.37,149.95,119,0,0,5.82,16.44,7.32,25,1.74,9.9,2.65,20.1,2.65,30.5Z" fill="url(#Degradado_sin_nombre_49)"/>
  <path d="m664.02,997.5h-83.5v-83.5c0,46.12,37.38,83.5,83.5,83.5Z" fill="url(#Degradado_sin_nombre_79)"/>
  <path d="m1024.52,907.82v42.95c-.37,8.41-1.33,16.67-2.86,24.73-1.41,7.52-3.3,14.86-5.64,22-20.56,62.73-75.57,109.85-142.66,119h-336.54c-69.8-6.84-127.58-54.61-149.02-119h455.96c34.93,0,68.03-7.89,97.59-22,2.55-1.21,5.08-2.47,7.57-3.78.2-.1.39-.2.58-.3,2.71-1.43,5.38-2.91,8.02-4.45,24.81-14.38,46.64-33.34,64.33-55.71.91-1.14,1.8-2.28,2.67-3.44Z" fill="url(#Degradado_sin_nombre_84)"/>
  <path d="m627.28,620.8l154.93,86.02c-3.99,1.4-8.12,2.5-12.37,3.28-4.97.92-10.09,1.4-15.32,1.4h-102.11c-39.7,0-71.89,32.19-71.89,71.89v214.11h-119s-1.05-281.95-1-283c.99-27.05,3-63,42-91,7.85-5.64,16.83-9.8,26.12-12.81,32.77-10.62,68.53-6.61,98.64,10.11Z" fill="url(#Degradado_sin_nombre_67)"/>
  <path d="m957.52,913c0,20.33-2.98,39.97-8.53,58.49-.02.08-.05.15-.07.23-2.49,1.31-5.02,2.57-7.57,3.78-29.56,14.11-62.66,22-97.59,22-1.75,0-3.5-.02-5.24-.06v.06h-83c11.13,0,21.75-2.19,31.44-6.17.5-.2,1-.41,1.49-.63,29.46-12.73,50.07-42.06,50.07-76.2,0-.18,0-.37-.01-.55.01-.15.01-.3.01-.45,0-42.29-32.11-77.85-73-83h3.38c1.83.07,3.7.17,5.39,0,47.13-4.66,89.53-25.4,121.65-56.64,1.13-1.12,2.25-2.23,3.36-3.36,1.97,2,3.9,4.05,5.78,6.14,1.79,1.98,3.54,4,5.25,6.05,2.13,2.55,4.2,5.15,6.2,7.81,9.3,12.32,17.24,25.73,23.57,40,11.2,25.21,17.42,53.13,17.42,82.5Z" fill="url(#Degradado_sin_nombre_62)"/>
  <path d="m1024.52,865.18v42.64c-.87,1.16-1.76,2.3-2.67,3.44-17.69,22.37-39.52,41.33-64.33,55.71-2.64,1.54-5.31,3.02-8.02,4.45-.19.1-.38.2-.58.3.02-.08.05-.15.07-.23,5.55-18.52,8.53-38.16,8.53-58.49,0-29.37-6.22-57.29-17.42-82.5-6.33-14.27-14.27-27.68-23.57-40-2-2.66-4.07-5.26-6.2-7.81,2.23-.59,4.49-1.1,6.78-1.52h.01c5.8-1.1,11.78-1.67,17.9-1.67,3.2,0,6.37.16,9.5.47,12.63,1.22,24.55,4.89,35.27,10.53.72.38,1.44.76,2.14,1.16,26.53,14.77,42.59,43.15,42.59,73.52Z" fill="url(#Degradado_sin_nombre_74)"/>
  <path d="m1024.52,633.18v45.64c0,30.37-16.06,58.75-42.59,73.52-.7.4-1.42.78-2.14,1.16-10.72,5.64-22.64,9.31-35.27,10.53-3.13.31-6.3.47-9.5.47-7.39,0-14.58-.83-21.5-2.4-1.77-.41-3.52-.86-5.25-1.36,2.04-2.37,4.03-4.78,5.96-7.24,10.07-12.85,18.64-26.94,25.42-42,11.48-25.48,17.87-53.74,17.87-83.5,0-19.19-2.66-37.76-7.62-55.36-.32-1.13-.64-2.25-.98-3.36,2.91,1.52,5.77,3.1,8.6,4.75.12.06.23.12.34.19,24.66,14.36,46.36,33.23,63.97,55.49.91,1.15,1.81,2.3,2.69,3.47Z" fill="url(#Degradado_sin_nombre_42)"/>
</svg>