<?xml version="1.0" encoding="UTF-8"?>
<svg id="Capa_6" data-name="Capa 6" xmlns="http://www.w3.org/2000/svg" xmlns:xlink="http://www.w3.org/1999/xlink" viewBox="0 0 1470.67 1546">
  <defs>
    <linearGradient id="Degradado_sin_nombre_56" data-name="Degradado sin nombre 56" x1="899.76" y1="1003.57" x2="730.77" y2="474.73" gradientUnits="userSpaceOnUse">
      <stop offset="0" stop-color="#2292f4"/>
      <stop offset=".17" stop-color="#248cf0"/>
      <stop offset=".39" stop-color="#2d7be6"/>
      <stop offset=".64" stop-color="#3b60d5"/>
      <stop offset=".91" stop-color="#4e3bbe"/>
      <stop offset="1" stop-color="#562cb5"/>
    </linearGradient>
    <linearGradient id="Degradado_sin_nombre_49" data-name="Degradado sin nombre 49" x1="247.29" y1="419.78" x2="1167.63" y2="419.78" gradientUnits="userSpaceOnUse">
      <stop offset="0" stop-color="#2292f4"/>
      <stop offset="1" stop-color="#562cb5"/>
    </linearGradient>
    <linearGradient id="Degradado_sin_nombre_79" data-name="Degradado sin nombre 79" x1="675.57" y1="909.72" x2="468.81" y2="1203.97" gradientUnits="userSpaceOnUse">
      <stop offset="0" stop-color="#2292f4"/>
      <stop offset=".18" stop-color="#248df0"/>
      <stop offset=".39" stop-color="#2b7ee8"/>
      <stop offset=".61" stop-color="#3767d9"/>
      <stop offset=".84" stop-color="#4846c5"/>
      <stop offset="1" stop-color="#562cb5"/>
    </linearGradient>
    <linearGradient id="Degradado_sin_nombre_84" data-name="Degradado sin nombre 84" x1="247.52" y1="1118.22" x2="1167.63" y2="1118.22" gradientUnits="userSpaceOnUse">
      <stop offset="0" stop-color="#2292f4"/>
      <stop offset=".26" stop-color="#346edd"/>
      <stop offset=".58" stop-color="#464ac7"/>
      <stop offset=".84" stop-color="#5134ba"/>
      <stop offset="1" stop-color="#562cb5"/>
    </linearGradient>
    <linearGradient id="Degradado_sin_nombre_67" data-name="Degradado sin nombre 67" x1="352.6" y1="813.3" x2="817.47" y2="813.3" gradientUnits="userSpaceOnUse">
      <stop offset="0" stop-color="#2292f4"/>
      <stop offset=".36" stop-color="#3370df"/>
      <stop offset="1" stop-color="#562cb5"/>
    </linearGradient>
    <linearGradient id="Degradado_sin_nombre_62" data-name="Degradado sin nombre 62" x1="1131.66" y1="1081.41" x2="811.57" y2="890.55" gradientUnits="userSpaceOnUse">
      <stop offset="0" stop-color="#2292f4"/>
      <stop offset=".24" stop-color="#238ef2"/>
      <stop offset=".43" stop-color="#2885ec"/>
      <stop offset=".61" stop-color="#3074e1"/>
      <stop offset=".77" stop-color="#3c5dd3"/>
      <stop offset=".92" stop-color="#4c3fc1"/>
      <stop offset="1" stop-color="#562cb5"/>
    </linearGradient>
    <linearGradient id="Degradado_sin_nombre_74" data-name="Degradado sin nombre 74" x1="1071.03" y1="915.76" x2="1014.59" y2="1070.82" gradientUnits="userSpaceOnUse">
      <stop offset="0" stop-color="#2292f4"/>
      <stop offset=".22" stop-color="#3074e1"/>
      <stop offset=".56" stop-color="#454dc9"/>
      <stop offset=".83" stop-color="#5134ba"/>
      <stop offset="1" stop-color="#562cb5"/>
    </linearGradient>
    <linearGradient id="Degradado_sin_nombre_42" data-name="Degradado sin nombre 42" x1="1068.82" y1="622.02" x2="1011.36" y2="464.16" gradientUnits="userSpaceOnUse">
      <stop offset="0" stop-color="#2292f4"/>
      <stop offset=".22" stop-color="#3074e1"/>
      <stop offset=".56" stop-color="#454dc9"/>
      <stop offset=".83" stop-color="#5134ba"/>
      <stop offset="1" stop-color="#562cb5"/>
    </linearGradient>
  </defs>
  <path d="m1059.8,483.08c7.17,25.43,11.01,52.27,11.01,80,0,43.01-9.23,83.84-25.82,120.66-9.8,21.76-22.18,42.12-36.73,60.69-2.79,3.55-5.66,7.04-8.61,10.46-1.81,2.11-3.64,4.18-5.51,6.23-.2.23-.42.46-.64.68-2.23,2.44-4.51,4.84-6.82,7.2-1.6,1.63-3.22,3.24-4.86,4.86-46.42,45.14-107.69,75.12-175.79,81.85-2.44.25-5.14.1-7.79,0h-272.23v-68.08c0-57.37,46.52-103.89,103.89-103.89h147.56c7.56,0,14.96-.69,22.14-2.02,6.14-1.13,12.11-2.72,17.88-4.74,47.38-16.53,81.37-61.6,81.37-114.62,0-49.87-30.07-92.72-73.08-111.39-14.8-6.43-31.14-10-48.31-10h128.96c53.96,0,104.88,13.03,149.78,36.13.74.36,1.46.75,2.18,1.13.49,1.6.95,3.22,1.42,4.86Z" fill="url(#Degradado_sin_nombre_56)"/>
  <path d="m1167.63,521.17v49.39c-1.27-1.69-2.57-3.35-3.89-5.01-25.45-32.17-56.81-59.44-92.44-80.19-.16-.1-.32-.19-.49-.27-4.09-2.38-8.22-4.67-12.43-6.86-.72-.38-1.45-.77-2.18-1.13-44.9-23.09-95.82-36.13-149.78-36.13H247.29c31.47-94.06,116.65-163.51,219.13-171.97h470.12c101.45,9.38,185.53,78.57,216.69,171.97,0,0,8.41,23.76,10.58,36.13,2.51,14.31,3.83,29.05,3.83,44.08Z" fill="url(#Degradado_sin_nombre_49)"/>
  <path d="m646.68,1097.03h-120.66v-120.66c0,66.65,54.02,120.66,120.66,120.66Z" fill="url(#Degradado_sin_nombre_79)"/>
  <path d="m1167.63,967.44v62.07c-.53,12.15-1.92,24.09-4.13,35.74-2.04,10.87-4.77,21.47-8.15,31.79-29.71,90.65-109.21,158.74-206.16,171.97h-486.33c-100.87-9.88-184.36-78.92-215.35-171.97h658.9c50.48,0,98.31-11.4,141.03-31.79,3.68-1.75,7.34-3.57,10.94-5.46.29-.14.56-.29.84-.43,3.92-2.07,7.77-4.21,11.59-6.43,35.85-20.78,67.4-48.18,92.96-80.51,1.32-1.65,2.6-3.29,3.86-4.97Z" fill="url(#Degradado_sin_nombre_84)"/>
  <path d="m593.59,552.67l223.89,124.31c-5.77,2.02-11.73,3.61-17.88,4.74-7.18,1.33-14.58,2.02-22.14,2.02h-147.56c-57.37,0-103.89,46.52-103.89,103.89v309.41h-171.97s-1.52-407.44-1.45-408.96c1.43-39.09,4.34-91.04,60.69-131.5,11.34-8.15,24.32-14.16,37.75-18.51,47.36-15.35,99.03-9.55,142.54,14.61Z" fill="url(#Degradado_sin_nombre_67)"/>
  <path d="m1070.81,974.92c0,29.38-4.31,57.76-12.33,84.52-.03.12-.07.22-.1.33-3.6,1.89-7.25,3.71-10.94,5.46-42.72,20.39-90.55,31.79-141.03,31.79-2.53,0-5.06-.03-7.57-.09v.09h-119.94c16.08,0,31.43-3.16,45.43-8.92.72-.29,1.45-.59,2.15-.91,42.57-18.4,72.36-60.78,72.36-110.12,0-.26,0-.53-.01-.79.01-.22.01-.43.01-.65,0-61.11-46.4-112.5-105.49-119.94h4.88c2.64.1,5.35.25,7.79,0,68.11-6.73,129.38-36.71,175.79-81.85,1.63-1.62,3.25-3.22,4.86-4.86,2.85,2.89,5.64,5.85,8.35,8.87,2.59,2.86,5.12,5.78,7.59,8.74,3.08,3.68,6.07,7.44,8.96,11.29,13.44,17.8,24.91,37.18,34.06,57.8,16.18,36.43,25.17,76.78,25.17,119.22Z" fill="url(#Degradado_sin_nombre_62)"/>
  <path d="m1167.63,905.82v61.62c-1.26,1.68-2.54,3.32-3.86,4.97-25.56,32.33-57.11,59.73-92.96,80.51-3.82,2.23-7.67,4.36-11.59,6.43-.27.14-.55.29-.84.43.03-.12.07-.22.1-.33,8.02-26.76,12.33-55.14,12.33-84.52,0-42.44-8.99-82.79-25.17-119.22-9.15-20.62-20.62-40-34.06-57.8-2.89-3.84-5.88-7.6-8.96-11.29,3.22-.85,6.49-1.59,9.8-2.2h.01c8.38-1.59,17.02-2.41,25.87-2.41,4.62,0,9.21.23,13.73.68,18.25,1.76,35.48,7.07,50.97,15.22,1.04.55,2.08,1.1,3.09,1.68,38.34,21.34,61.55,62.36,61.55,106.24Z" fill="url(#Degradado_sin_nombre_74)"/>
  <path d="m1167.63,570.56v65.95c0,43.89-23.21,84.9-61.55,106.24-1.01.58-2.05,1.13-3.09,1.68-15.49,8.15-32.72,13.45-50.97,15.22-4.52.45-9.1.68-13.73.68-10.68,0-21.07-1.2-31.07-3.47-2.56-.59-5.09-1.24-7.59-1.97,2.95-3.42,5.82-6.91,8.61-10.46,14.55-18.57,26.94-38.93,36.73-60.69,16.59-36.82,25.82-77.66,25.82-120.66,0-27.73-3.84-54.57-11.01-80-.46-1.63-.92-3.25-1.42-4.86,4.21,2.2,8.34,4.48,12.43,6.86.17.09.33.17.49.27,35.64,20.75,66.99,48.02,92.44,80.19,1.32,1.66,2.62,3.32,3.89,5.01Z" fill="url(#Degradado_sin_nombre_42)"/>
</svg>